<svg id="Icons" height="512" viewBox="0 0 74 74" width="512" xmlns="http://www.w3.org/2000/svg"><path d="m37 72a35 35 0 1 1 35-35 35.04 35.04 0 0 1 -35 35zm0-68a33 33 0 1 0 33 33 33.037 33.037 0 0 0 -33-33z"/><path d="m37 66a29 29 0 1 1 29-29 29.033 29.033 0 0 1 -29 29zm0-56a27 27 0 1 0 27 27 27.031 27.031 0 0 0 -27-27z"/><path d="m37 17.281a1 1 0 0 1 -1-1v-1.718a1 1 0 0 1 2 0v1.719a1 1 0 0 1 -1 .999z"/><path d="m37 60.438a1 1 0 0 1 -1-1v-1.719a1 1 0 0 1 2 0v1.719a1 1 0 0 1 -1 1z"/><path d="m51.65 23.35a1 1 0 0 1 -.707-1.707l1.215-1.215a1 1 0 0 1 1.414 1.414l-1.215 1.215a1 1 0 0 1 -.707.293z"/><path d="m21.135 53.866a1 1 0 0 1 -.707-1.707l1.215-1.215a1 1 0 0 1 1.414 1.414l-1.215 1.215a1 1 0 0 1 -.707.293z"/><path d="m59.438 38h-1.719a1 1 0 0 1 0-2h1.719a1 1 0 0 1 0 2z"/><path d="m16.281 38h-1.718a1 1 0 0 1 0-2h1.719a1 1 0 0 1 0 2z"/><path d="m52.865 53.866a1 1 0 0 1 -.707-.293l-1.215-1.215a1 1 0 0 1 1.414-1.414l1.215 1.215a1 1 0 0 1 -.707 1.707z"/><path d="m22.35 23.35a1 1 0 0 1 -.707-.293l-1.215-1.215a1 1 0 0 1 1.414-1.414l1.215 1.215a1 1 0 0 1 -.707 1.707z"/><path d="m31.438 43.563a1 1 0 0 1 -.707-1.707l5.269-5.27v-14.586a1 1 0 0 1 2 0v15a1 1 0 0 1 -.293.707l-5.562 5.563a1 1 0 0 1 -.707.293z"/></svg>