<?xml version="1.0" encoding="iso-8859-1"?>
<!-- Generator: Adobe Illustrator 19.0.0, SVG Export Plug-In . SVG Version: 6.00 Build 0)  -->
<svg version="1.1" id="Capa_1" xmlns="http://www.w3.org/2000/svg" xmlns:xlink="http://www.w3.org/1999/xlink" x="0px" y="0px"
	 viewBox="0 0 512 512" style="enable-background:new 0 0 512 512;" xml:space="preserve">
<g>
	<g>
		<path d="M155.577,401.82l-20.681-115.647c-0.971-5.435-6.166-9.059-11.604-8.083c-5.437,0.972-9.056,6.167-8.083,11.604
			l20.681,115.647c0.866,4.841,5.08,8.241,9.832,8.241c0.584,0,1.177-0.052,1.772-0.158
			C152.931,412.452,156.55,407.257,155.577,401.82z"/>
	</g>
</g>
<g>
	<g>
		<path d="M296.202,317.023c-5.522,0-10,4.477-10,10v76.559c0,5.522,4.478,10,10,10c5.522,0,10-4.478,10-10v-76.559
			C306.202,321.501,301.724,317.023,296.202,317.023z"/>
	</g>
</g>
<g>
	<g>
		<path d="M303.269,280.863c-1.859-1.861-4.439-2.93-7.069-2.93c-2.631,0-5.21,1.069-7.07,2.93c-1.86,1.861-2.93,4.44-2.93,7.07
			s1.069,5.21,2.93,7.069c1.86,1.86,4.439,2.931,7.07,2.931c2.63,0,5.21-1.07,7.069-2.931c1.86-1.859,2.931-4.439,2.931-7.069
			S305.13,282.723,303.269,280.863z"/>
	</g>
</g>
<g>
	<g>
		<path d="M215.798,277.934c-5.522,0-10,4.478-10,10v115.647c0,5.522,4.478,10,10,10c5.522,0,10-4.478,10-10V287.934
			C225.798,282.411,221.32,277.934,215.798,277.934z"/>
	</g>
</g>
<g>
	<g>
		<path d="M388.708,278.091c-5.45-0.978-10.633,2.647-11.604,8.083l-20.681,115.647c-0.973,5.438,2.646,10.633,8.083,11.604
			c0.596,0.106,1.188,0.158,1.772,0.158c4.752,0,8.967-3.4,9.832-8.241l20.681-115.647
			C397.764,284.257,394.145,279.062,388.708,278.091z"/>
	</g>
</g>
<g>
	<g>
		<path d="M261.139,454.893c-1.859-1.87-4.439-2.931-7.07-2.931c-2.63,0-5.21,1.061-7.069,2.931c-1.86,1.859-2.931,4.43-2.931,7.069
			c0,2.63,1.07,5.21,2.931,7.07c1.859,1.86,4.439,2.93,7.069,2.93c2.631,0,5.211-1.069,7.07-2.93c1.86-1.86,2.93-4.44,2.93-7.07
			S263,456.752,261.139,454.893z"/>
	</g>
</g>
<g>
	<g>
		<path d="M482,147.948h-23.667c-5.522,0-10,4.478-10,10c0,5.522,4.478,10,10,10H482c5.514,0,10,4.486,10,10v32
			c0,5.514-4.486,10-10,10H30c-5.514,0-10-4.486-10-10v-32c0-5.514,4.486-10,10-10h20.333c5.522,0,10-4.478,10-10
			c0-5.522-4.478-10-10-10H30c-16.542,0-30,13.458-30,30v32c0,14.349,10.129,26.371,23.61,29.308L59.435,424.77
			c5.278,27.344,29.323,47.19,57.173,47.19H209c5.522,0,10-4.478,10-10c0-5.522-4.478-10-10-10h-92.393
			c-18.284,0-34.07-13.029-37.536-30.982L44.116,239.96h423.768l-34.955,181.019c-3.466,17.952-19.252,30.981-37.536,30.981h-99.19
			c-5.522,0-10,4.478-10,10c0,5.522,4.478,10,10,10h99.19c27.85,0,51.895-19.847,57.173-47.189l35.824-185.515
			c13.481-2.937,23.61-14.959,23.61-29.308v-32C512,161.406,498.542,147.948,482,147.948z"/>
	</g>
</g>
<g>
	<g>
		<path d="M421.411,150.364L320.264,49.214c-12.239-12.236-32.154-12.234-44.39,0.002c-12.237,12.238-12.237,32.151,0,44.391
			l54.34,54.341H181.785l54.341-54.342c12.237-12.238,12.237-32.151,0-44.391c-12.236-12.236-32.149-12.235-44.392,0L90.588,150.364
			c-12.238,12.238-12.237,32.151,0.001,44.391c5.929,5.928,13.81,9.193,22.194,9.193c8.384,0,16.266-3.265,22.196-9.193
			l26.806-26.807h186.857c0.495,0,0.978-0.048,1.454-0.117l26.925,26.925c5.93,5.928,13.812,9.192,22.195,9.192
			s16.266-3.265,22.194-9.193C433.648,182.516,433.649,162.603,421.411,150.364z M120.838,180.611
			c-2.152,2.152-5.013,3.337-8.055,3.337c-3.041,0-5.901-1.185-8.052-3.336c-4.44-4.441-4.441-11.666-0.001-16.106L205.876,63.359
			c2.221-2.221,5.138-3.331,8.056-3.331c2.916,0,5.832,1.11,8.052,3.329c4.44,4.441,4.44,11.667,0,16.107L120.838,180.611z
			 M407.269,180.611c-2.15,2.151-5.011,3.336-8.052,3.336c-3.042,0-5.902-1.185-8.054-3.336L290.017,79.465
			c-4.441-4.441-4.441-11.667,0-16.107c2.22-2.22,5.136-3.33,8.053-3.33c2.916,0,5.833,1.11,8.054,3.33L407.27,164.506
			C411.71,168.945,411.709,176.171,407.269,180.611z"/>
	</g>
</g>
<g>
</g>
<g>
</g>
<g>
</g>
<g>
</g>
<g>
</g>
<g>
</g>
<g>
</g>
<g>
</g>
<g>
</g>
<g>
</g>
<g>
</g>
<g>
</g>
<g>
</g>
<g>
</g>
<g>
</g>
</svg>
