<svg id="Layer_1" enable-background="new 0 0 56.69 56.69" height="512" viewBox="0 0 56.69 56.69" width="512" xmlns="http://www.w3.org/2000/svg"><g><path d="m48.483 31.239-10.999 10.996c-.847.85-1.977 1.319-3.181 1.319-1.202 0-2.332-.468-3.182-1.318s-1.318-1.979-1.318-3.182.469-2.332 1.318-3.182l3.027-3.027h-22.47c-2.481 0-4.5-2.019-4.5-4.5s2.019-4.5 4.5-4.5h22.469l-3.026-3.026c-.851-.85-1.318-1.98-1.318-3.182s.468-2.333 1.318-3.182c.849-.85 1.979-1.318 3.181-1.318s2.332.468 3.183 1.317l10.751 10.751c.249.256 1.18 1.273 1.277 2.883.103 1.719-.818 2.894-1.03 3.151zm-1.74-4.697-10.673-10.673c-.945-.943-2.593-.944-3.534 0-.474.473-.733 1.101-.733 1.769 0 .667.26 1.295.732 1.768l6.442 6.44h-27.299v-.001c-1.378 0-2.5 1.122-2.5 2.5 0 1.379 1.122 2.5 2.5 2.5h27.298l-6.441 6.441c-.473.473-.732 1.1-.732 1.768s.26 1.295.732 1.768c.947.946 2.595.943 3.534.001l10.772-10.773c.128-.131.683-.725.702-1.656.023-1.076-.689-1.75-.8-1.852z"/></g></svg>