<?xml version="1.0" encoding="iso-8859-1"?>
<!-- Generator: Adobe Illustrator 19.0.0, SVG Export Plug-In . SVG Version: 6.00 Build 0)  -->
<svg version="1.1" id="Capa_1" xmlns="http://www.w3.org/2000/svg" xmlns:xlink="http://www.w3.org/1999/xlink" x="0px" y="0px"
	 viewBox="0 0 512.001 512.001" style="enable-background:new 0 0 512.001 512.001;" xml:space="preserve">
<g>
	<g>
		<path d="M358.316,153.653c-39.645-39.644-92.355-61.478-148.421-61.478c-56.066,0-108.776,21.834-148.42,61.478
			c-81.839,81.839-81.839,215,0,296.839c30.379,30.379,68.699,50.469,110.82,58.101c12.565,2.277,25.2,3.407,37.784,3.407
			c28.627,0,56.973-5.852,83.514-17.382c3.872-1.682,5.647-6.185,3.966-10.057s-6.184-5.648-10.057-3.966
			c-35.427,15.389-74.322,19.868-112.482,12.954c-39.044-7.074-74.569-25.702-102.736-53.869
			c-36.755-36.757-56.997-85.628-56.997-137.609c0-51.982,20.243-100.852,57-137.609c36.757-36.757,85.627-57,137.609-57
			c51.981,0,100.852,20.243,137.609,57c36.757,36.757,57,85.627,57,137.609s-20.243,100.852-57,137.609
			c-9.339,9.34-19.613,17.731-30.534,24.943c-3.523,2.326-4.494,7.068-2.167,10.591c2.326,3.523,7.068,4.494,10.591,2.167
			c11.779-7.778,22.856-16.825,32.921-26.891c39.644-39.644,61.478-92.354,61.478-148.419
			C419.794,246.008,397.96,193.298,358.316,153.653z"/>
	</g>
</g>
<g>
	<g>
		<path d="M330.267,181.701c-66.372-66.372-174.369-66.373-240.743,0c-66.373,66.373-66.373,174.37,0,240.742
			c33.187,33.187,76.779,49.779,120.371,49.779c43.593,0,87.186-16.594,120.372-49.779
			C396.639,356.071,396.639,248.074,330.267,181.701z M319.456,411.634c-60.411,60.412-158.709,60.413-219.123,0
			c-60.412-60.412-60.412-158.71,0-219.122c30.206-30.205,69.883-45.309,109.561-45.309c39.677,0,79.355,15.103,109.561,45.309
			C379.868,252.924,379.868,351.222,319.456,411.634z"/>
	</g>
</g>
<g>
	<g>
		<path d="M232.984,19.642c-1.586-3.913-6.044-5.796-9.957-4.211c-26.042,10.56-49.404,26.073-69.439,46.107
			c-4.973,4.973-9.729,10.226-14.139,15.612c-2.673,3.268-2.192,8.083,1.074,10.757c1.421,1.163,3.134,1.73,4.837,1.73
			c2.213,0,4.409-0.956,5.92-2.803c4.089-4.996,8.502-9.869,13.118-14.485c18.579-18.579,40.238-32.962,64.374-42.75
			C232.685,28.012,234.57,23.555,232.984,19.642z"/>
	</g>
</g>
<g>
	<g>
		<path d="M450.428,61.539C399.46,10.57,326.961-10.554,256.492,5.03c-4.122,0.911-6.725,4.992-5.814,9.115
			c0.912,4.122,4.993,6.725,9.115,5.813c65.341-14.45,132.567,5.135,179.824,52.392c75.877,75.878,75.877,199.341,0,275.218
			c-4.617,4.617-9.491,9.03-14.485,13.118c-3.267,2.674-3.748,7.49-1.073,10.757c1.51,1.847,3.706,2.803,5.92,2.803
			c1.703,0,3.416-0.567,4.837-1.729c5.385-4.407,10.638-9.165,15.611-14.139c39.644-39.644,61.478-92.354,61.478-148.42
			C511.905,153.893,490.073,101.183,450.428,61.539z"/>
	</g>
</g>
<g>
	<g>
		<path d="M471.339,192.425c-3.991-38.73-21.38-75.252-48.964-102.835c-27.58-27.58-64.095-44.967-102.819-48.958
			c-38.169-3.934-76.899,5.21-109.053,25.749c-3.558,2.273-4.6,6.999-2.327,10.557c2.273,3.558,6.998,4.6,10.557,2.327
			c29.257-18.688,64.51-27.009,99.254-23.426c35.24,3.631,68.473,19.457,93.577,44.56c25.106,25.107,40.934,58.345,44.566,93.591
			c3.582,34.755-4.74,70.011-23.432,99.27c-2.272,3.558-1.23,8.284,2.328,10.557c1.275,0.814,2.7,1.203,4.107,1.203
			c2.523,0,4.991-1.247,6.45-3.53C466.126,269.335,475.274,230.601,471.339,192.425z"/>
	</g>
</g>
<g>
	<g>
		<path d="M262.475,355.088c-3.261-2.681-8.079-2.209-10.759,1.053c-10.808,13.153-24.912,20.396-39.714,20.396
			c-25.194,0-46.666-20.845-54.584-49.833h57.747c4.222,0,7.644-3.423,7.644-7.644c0-4.222-3.423-7.644-7.644-7.644h-60.542
			c-0.3-3.063-0.472-6.176-0.472-9.343c0-3.166,0.172-6.279,0.472-9.343h60.542c4.222,0,7.644-3.422,7.644-7.644
			c0-4.222-3.423-7.644-7.644-7.644h-57.747c7.918-28.987,29.39-49.831,54.584-49.831c14.802,0,28.906,7.244,39.714,20.396
			c2.68,3.261,7.495,3.733,10.759,1.053c3.261-2.681,3.733-7.497,1.053-10.759c-13.766-16.753-32.065-25.979-51.525-25.979
			c-33.371,0-61.593,27.569-70.338,65.121H131.59c-4.222,0-7.644,3.422-7.644,7.644c0,4.222,3.423,7.644,7.644,7.644h7.669
			c-0.26,3.072-0.395,6.189-0.395,9.343c0,3.154,0.135,6.271,0.395,9.343h-7.669c-4.222,0-7.644,3.423-7.644,7.644
			c0,4.222,3.423,7.644,7.644,7.644h10.075c8.745,37.552,36.967,65.122,70.338,65.122c19.461,0,37.76-9.226,51.525-25.979
			C266.208,362.585,265.736,357.768,262.475,355.088z"/>
	</g>
</g>
<g>
</g>
<g>
</g>
<g>
</g>
<g>
</g>
<g>
</g>
<g>
</g>
<g>
</g>
<g>
</g>
<g>
</g>
<g>
</g>
<g>
</g>
<g>
</g>
<g>
</g>
<g>
</g>
<g>
</g>
</svg>
