<svg id="Capa_1" enable-background="new 0 0 512 512" height="512" viewBox="0 0 512 512" width="512" xmlns="http://www.w3.org/2000/svg"><g><path d="m421.022 152.642c-6.594-85.273-78.088-152.642-165.022-152.642s-158.428 67.369-165.022 152.642c-17.81 5.657-30.752 22.345-30.752 42.003v273.293c0 24.296 19.766 44.063 44.063 44.063h303.422c24.296 0 44.063-19.766 44.063-44.063v-273.293c-.001-19.659-12.943-36.347-30.752-42.003zm-165.022-122.642c69.677 0 127.232 52.86 134.692 120.582h-30.243c-7.278-51.13-51.34-90.574-104.449-90.574s-97.171 39.444-104.449 90.574h-30.243c7.46-67.722 65.015-120.582 134.692-120.582zm74.022 120.582h-148.044c6.953-34.506 37.497-60.574 74.022-60.574s67.069 26.068 74.022 60.574zm91.751 317.356c0 7.754-6.309 14.063-14.063 14.063h-303.421c-7.754 0-14.063-6.309-14.063-14.063v-273.293c0-7.754 6.309-14.063 14.063-14.063h303.422c7.754 0 14.063 6.309 14.063 14.063v273.293z"/><path d="m339.758 299.22c0-21.586-12.667-40.266-30.956-49.008v-9.923c0-8.284-6.716-15-15-15s-15 6.716-15 15v4.645h-46.613v-4.645c0-8.284-6.716-15-15-15s-15 6.716-15 15v4.645h-14.948c-8.284 0-15 6.716-15 15s6.716 15 15 15h4.645v127.162h-4.645c-8.284 0-15 6.716-15 15s6.716 15 15 15h14.948v4.646c0 8.284 6.716 15 15 15s15-6.716 15-15v-4.646h46.613v4.646c0 8.284 6.716 15 15 15s15-6.716 15-15v-9.923c18.289-8.742 30.956-27.424 30.956-49.017 0-15.444-6.494-29.391-16.881-39.286 10.388-9.896 16.881-23.846 16.881-39.296zm-30 78.592c0 13.391-10.895 24.285-24.285 24.285h-63.586v-48.581h63.586c13.391 0 24.285 10.894 24.285 24.296zm-87.871-54.296v-48.581h63.586c13.391 0 24.285 10.895 24.285 24.296 0 13.391-10.895 24.285-24.285 24.285z"/></g></svg>