<svg height="512" viewBox="0 0 60 60" width="512" xmlns="http://www.w3.org/2000/svg"><g id="Page-1" fill="none" fill-rule="evenodd"><g id="013---Secure-Payment" fill="rgb(0,0,0)" fill-rule="nonzero"><path id="Shape" d="m14 15c1.6568542 0 3-1.3431458 3-3v-4c0-1.65685425-1.3431458-3-3-3h-6c-1.65685425 0-3 1.34314575-3 3v4c0 1.6568542 1.34314575 3 3 3zm0-2h-3v-2h4v1c0 .5522847-.4477153 1-1 1zm1-5v1h-4v-2h3c.5522847 0 1 .44771525 1 1zm-7-1h1v2h-2v-1c0-.55228475.44771525-1 1-1zm-1 5v-1h2v2h-1c-.55228475 0-1-.4477153-1-1z"/><path id="Shape" d="m8 21c-.55228475 0-1 .4477153-1 1s.44771525 1 1 1h6c.5522847 0 1-.4477153 1-1s-.4477153-1-1-1z"/><path id="Shape" d="m19 21h-1c-.5522847 0-1 .4477153-1 1s.4477153 1 1 1h1c.5522847 0 1-.4477153 1-1s-.4477153-1-1-1z"/><path id="Shape" d="m10 27h-2c-.55228475 0-1 .4477153-1 1s.44771525 1 1 1h2c.5522847 0 1-.4477153 1-1s-.4477153-1-1-1z"/><path id="Shape" d="m19 27h-4c-.5522847 0-1 .4477153-1 1s.4477153 1 1 1h4c.5522847 0 1-.4477153 1-1s-.4477153-1-1-1z"/><path id="Shape" d="m37 14c1.1531181-.003719 2.247792-.5079987 3-1.382 1.093225 1.2628661 2.8560646 1.7134762 4.4212104 1.1301323 1.5651459-.5833438 2.6030376-2.0778115 2.6030376-3.7481323 0-1.67032082-1.0378917-3.16478849-2.6030376-3.74813234-1.5651458-.58334385-3.3279854-.13273376-4.4212104 1.13013234-1.2110928-1.38665941-3.2134336-1.76522309-4.8471665-.91640804-1.6337329.84881506-2.4750835 2.70483451-2.0366995 4.49295914.438384 1.7881246 2.0427901 3.0445323 3.883866 3.0414489zm6-6c1.1045695 0 2 .8954305 2 2s-.8954305 2-2 2-2-.8954305-2-2 .8954305-2 2-2zm-6 0c1.1045695 0 2 .8954305 2 2s-.8954305 2-2 2-2-.8954305-2-2 .8954305-2 2-2z"/><path id="Shape" d="m57.148 20.991c-1.7300765-.0817957-3.4512215-.2974403-5.148-.645v-13.346c-.0044086-3.86416566-3.1358343-6.99559136-7-7h-38c-3.86416566.00440864-6.99559136 3.13583434-7 7v21c.00440864 3.8641657 3.13583434 6.9955914 7 7h15v1.916c-.0000195.1442243.0103406.288263.031.431.253 1.759 2.911 17.34 18 22.493.6294103.213359 1.3115897.213359 1.941 0 15.088-5.153 17.746-20.734 18-22.5.0199748-.1414565.0299994-.2841402.03-.427v-12.913c.006716-1.6049508-1.2509362-2.9309058-2.854-3.009zm-50.148 12.009c-2.76005315-.0033061-4.99669388-2.2399468-5-5v-21c.00330612-2.76005315 2.23994685-4.99669388 5-5h38c2.7600532.00330612 4.9966939 2.23994685 5 5v12.856c-2.5755804-.6836758-4.9891982-1.8734874-7.1-3.5-1.1056211-.8969718-2.6883789-.8969718-3.794 0-4.565 3.666-10.888 4.476-14.251 4.633-1.6042346.0776099-2.8627653 1.4049079-2.855 3.011v9zm51 3.916c-.0002411.0488292-.0035811.0975939-.01.146-.236 1.635-2.705 16.117-16.667 20.885-.2098198.0710204-.4371802.0710204-.647 0-13.961-4.768-16.43-19.247-16.665-20.882-.0071437-.0493486-.0108194-.0991373-.011-.149v-12.916c-.0067023-.535741.4100258-.9815739.945-1.011 3.606-.168 10.4-1.05 15.41-5.072.3744241-.3091771.9155759-.3091771 1.29 0 5.007 4.022 11.8 4.9 15.41 5.072.5349742.0294261.9517023.475259.945 1.011z"/><path id="Shape" d="m55.1 24.838c-4.8107101-.3668207-9.4575988-1.9100603-13.532-4.494-.3405685-.2332121-.7894315-.2332121-1.13 0-4.0761633 2.5848691-8.7252246 4.1281459-13.538 4.494-.510991.0513565-.9000065.4814347-.9.995v10.891c.0001944.0505262.0038697.100979.011.151.361 2.361 2.758 14.366 14.637 18.833.2257131.0843337.4742869.0843337.7 0 12.152-4.566 14.422-17.385 14.641-18.832.00718-.0493447.0108558-.0991359.011-.149v-10.894c.0000065-.5135653-.389009-.9436435-.9-.995zm-1.1 11.811c-.257 1.617-2.407 12.842-13 17.051-10.581-4.2-12.741-15.434-13-17.054v-9.916c4.6023984-.4756182 9.0421858-1.9653377 13-4.362 3.9578142 2.3966623 8.3976016 3.8863818 13 4.362z"/><path id="Shape" d="m35.707 37.293c-.3923789-.3789722-1.0160848-.3735524-1.4018186.0121814s-.3911536 1.0094397-.0121814 1.4018186l4 4c.1874927.1875494.4418052.2929434.707.293h.05c.2822038-.0142333.5452141-.1471915.724-.366l9-11c.3393297-.4281437.2722611-1.0493712-.1506305-1.3952244-.4228915-.3458532-1.0450741-.2883157-1.3973695.1292244l-8.3 10.145z"/></g></g></svg>